#!OML:ASF X:\für Bonn\!DataBase\2005_08_12_Daniel\c3d\Daniel.ASF
:FULLY-SPECIFIED
:DEGREES
233
root 1.12875 17.1711 0.834524 -560.459 -101.814 548.589
lowerback 15.3928 0.654771 -1.16379
upperback 1.29775 0.322745 -3.15004
thorax -7.24775 0.0995188 -2.76581
lowerneck 8.24917 -5.22803 0.451259
upperneck 6.48091 -7.51737 8.06315
head 0.972424 -3.85953 2.5947
rclavicle 3.50855e-014 -8.74653e-015
rhumerus 40.9018 1.46227 -55.825
rradius 49.9199
rwrist 29.505
rhand -37.3539 734.482
rfingers 7.12502
rthumb -10.4161 -15.2404
lclavicle 3.50855e-014 -8.74653e-015
lhumerus -153.874 215.55 -109.476
lradius 84.9557
lwrist 13.6653
lhand -18.2169 -5.10844
lfingers 7.12502
lthumb 8.06102 24.7178
rfemur -0.0622091 -2.73108 11.3108
rtibia 43.7079
rfoot -14.6155 -6.36707
rtoes -17.9506
lfemur -186.925 194.534 -202.266
ltibia 47.3925
lfoot 345.165 -4.23726
ltoes -0.183843
234
root 1.15103 17.0993 0.825696 -560.694 -101.875 548.821
lowerback 15.5153 0.665796 -1.34098
upperback 1.42762 0.300958 -3.1602
thorax -7.17816 0.0925779 -2.67091
lowerneck 7.86837 -5.19222 0.382509
upperneck 6.52459 -7.48957 8.15683
head 1.05561 -3.83491 2.6242
rclavicle -6.03808e-015 -1.59028e-014
rhumerus 38.6639 2.107 -56.8629
rradius 50.9894
rwrist 29.6941
rhand -37.7776 734.575
rfingers 7.12502
rthumb -10.8248 -15.1256
lclavicle -6.03808e-015 -1.59028e-014
lhumerus -155.867 215.868 -108.382
lradius 83.9446
lwrist 13.4882
lhand -18.399 -4.37618
lfingers 7.12502
lthumb 7.88528 25.4568
rfemur 0.190657 -2.49386 11.4735
rtibia 43.6446
rfoot -16.4088 -6.34772
rtoes -17.6123
lfemur -187.073 194.552 -202.253
ltibia 47.7553
lfoot 344.167 -4.7037
ltoes 0.0980902
235
root 1.17008 17.0329 0.817982 -561.071 -101.91 549.194
lowerback 15.6196 0.682812 -1.49121
upperback 1.56504 0.287944 -3.21466
thorax -7.08956 0.0877456 -2.64016
lowerneck 7.45538 -5.15564 0.371333
upperneck 6.55784 -7.45491 8.22523
head 1.13746 -3.80486 2.6345
rclavicle -1.20513e-014 7.95139e-016
rhumerus 36.3038 2.73736 -58.0512
rradius 51.9805
rwrist 29.9097
rhand -38.2522 734.688
rfingers 7.12502
rthumb -11.2825 -14.9886
lclavicle -1.20513e-014 7.95139e-016
lhumerus -157.96 216.102 -107.225
lradius 82.7802
lwrist 13.0821
lhand -18.5672 -3.98896
lfingers 7.12502
lthumb 7.72293 25.85
rfemur 0.487025 -2.19824 11.6194
rtibia 43.4999
rfoot -18.1076 -6.38555
rtoes -17.1404
lfemur -187.203 194.584 -202.267
ltibia 48.1271
lfoot 343.26 -5.19434
ltoes 0.581655
236
root 1.18865 16.974 0.809642 -561.262 -101.944 549.379
lowerback 15.7339 0.695801 -1.59486
upperback 1.68878 0.277844 -3.26156
thorax -7.02076 0.0830403 -2.62892
lowerneck 7.0656 -5.12419 0.317068
upperneck 6.59643 -7.43156 8.3191
head 1.22077 -3.78179 2.66215
rclavicle -2.68359e-015 1.19271e-014
rhumerus 33.8753 3.39844 -59.2337
rradius 52.7988
rwrist 30.0529
rhand -38.7171 734.733
rfingers 7.12502
rthumb -11.7308 -14.9183
lclavicle -2.68359e-015 1.19271e-014
lhumerus -160.185 216.194 -105.928
lradius 81.4681
lwrist 12.4462
lhand -18.697 -3.78608
lfingers 7.12502
lthumb 7.5976 26.0575
rfemur 0.798871 -1.81321 11.8462
rtibia 43.292
rfoot -19.6988 -6.59206
rtoes -16.7169
lfemur -187.349 194.605 -202.22
ltibia 48.4809
lfoot 342.432 -5.69565
ltoes 1.08377
237
root 1.20773 16.9171 0.800934 -561.623 -101.965 549.738
lowerback 15.8336 0.725194 -1.66935
upperback 1.81909 0.288449 -3.37587
thorax -6.93572 0.0858714 -2.71055
lowerneck 6.65909 -5.10775 0.328654
upperneck 6.62808 -7.42681 8.44083
head 1.30467 -3.76654 2.68741
rclavicle 2.36305e-014 1.82882e-014
rhumerus 31.3137 4.01979 -60.4951
rradius 53.4819
rwrist 30.1329
rhand -39.2185 734.685
rfingers 7.12502
rthumb -12.2143 -14.9382
lclavicle 2.36305e-014 1.82882e-014
lhumerus -162.385 216.181 -104.674
lradius 79.9803
lwrist 11.6601
lhand -18.7644 -3.73037
lfingers 7.12502
lthumb 7.5326 26.1155
rfemur 1.09512 -1.37797 12.0427
rtibia 43.0695
rfoot -21.201 -6.81373
rtoes -16.1975
lfemur -187.48 194.543 -202.194
ltibia 48.7828
lfoot 341.68 -6.18706
ltoes 1.45697
238
root 1.22376 16.8674 0.791359 -561.852 -101.957 549.974
lowerback 15.9028 0.761071 -1.70984
upperback 1.94394 0.315006 -3.48914
thorax -6.83881 0.0957353 -2.81336
lowerneck 6.3212 -5.09262 0.332009
upperneck 6.59427 -7.41807 8.58681
head 1.35731 -3.75269 2.72545
rclavicle 4.96962e-016 3.10104e-014
rhumerus 28.7203 4.65479 -61.8076
rradius 53.9118
rwrist 30.1201
rhand -39.7038 734.578
rfingers 7.12502
rthumb -12.6822 -15.0166
lclavicle 4.96962e-016 3.10104e-014
lhumerus -164.589 215.994 -103.352
lradius 78.2613
lwrist 10.7246
lhand -18.7383 -3.7142
lfingers 7.12502
lthumb 7.55773 26.1308
rfemur 1.38377 -0.86437 12.3037
rtibia 42.8264
rfoot -22.6006 -7.07131
rtoes -15.6371
lfemur -187.591 194.43 -202.128
ltibia 49.0175
lfoot 340.984 -6.621
ltoes 1.68498
239
root 1.23798 16.8275 0.779745 -562.228 -101.957 550.342
lowerback 15.9936 0.803777 -1.76774
upperback 2.0691 0.344052 -3.62526
thorax -6.75338 0.106545 -2.9318
lowerneck 5.98961 -5.10321 0.392025
upperneck 6.54406 -7.43425 8.65193
head 1.39897 -3.75052 2.72673
rclavicle 1.14798e-014 -2.14687e-014
rhumerus 26.007 5.32405 -63.137
rradius 54.1268
rwrist 30.0058
rhand -40.1533 734.277
rfingers 7.12502
rthumb -13.1156 -15.2906
lclavicle 1.14798e-014 -2.14687e-014
lhumerus -166.845 215.662 -101.994
lradius 76.4529
lwrist 9.68606
lhand -18.6093 -3.41209
lfingers 7.12502
lthumb 7.68227 26.4284
rfemur 1.68152 -0.389493 12.5247
rtibia 42.5839
rfoot -23.8437 -7.36603
rtoes -15.1915
lfemur -187.645 194.191 -202.051
ltibia 49.1601
lfoot 340.412 -7.13537
ltoes 1.84553
240
root 1.24883 16.7933 0.765009 -562.573 -101.925 550.632
lowerback 16.1167 0.862915 -1.84467
upperback 2.18963 0.391215 -3.74305
thorax -6.68998 0.126803 -3.0246
lowerneck 5.73345 -5.11432 0.477329
upperneck 6.46764 -7.44304 8.67051
head 1.41578 -3.74704 2.71053
rclavicle 4.46644e-015 4.92986e-014
rhumerus 23.0716 5.9893 -64.5883
rradius 54.2727
rwrist 29.7508
rhand -40.3895 733.743
rfingers 7.12502
rthumb -13.3433 -15.8098
lclavicle 4.46644e-015 4.92986e-014
lhumerus -169.119 215.134 -100.577
lradius 74.4669
lwrist 8.49768
lhand -18.3197 -2.79749
lfingers 7.12502
lthumb 7.96174 27.0326
rfemur 2.0276 0.142869 12.8028
rtibia 42.3358
rfoot -25.0017 -7.68847
rtoes -14.7517
lfemur -187.607 193.815 -201.908
ltibia 49.2127
lfoot 339.919 -7.70022
ltoes 2.02574
241
root 1.25471 16.7674 0.749679 -562.843 -101.88 550.878
lowerback 16.1536 0.925484 -1.89959
upperback 2.32996 0.449045 -3.88356
thorax -6.55712 0.151463 -3.15413
lowerneck 5.434 -5.14886 0.672801
upperneck 6.35114 -7.47169 8.61908
head 1.42023 -3.75122 2.65034
rclavicle -7.26185e-015 3.33958e-014
rhumerus 20.0194 6.47157 -66.2882
rradius 54.374
rwrist 29.5659
rhand -40.3557 732.915
rfingers 7.12502
rthumb -13.3106 -16.6395
lclavicle -7.26185e-015 3.33958e-014
lhumerus -171.309 214.469 -99.2439
lradius 72.3849
lwrist 7.24376
lhand -17.9081 -1.75798
lfingers 7.12502
lthumb 8.35905 28.0566
rfemur 2.33646 0.629562 13.0777
rtibia 42.1032
rfoot -26.0673 -7.95988
rtoes -14.4859
lfemur -187.54 193.447 -201.742
ltibia 49.1711
lfoot 339.5 -8.23336
ltoes 2.1431
242
root 1.25855 16.748 0.735757 -563.083 -101.782 551.153
lowerback 16.1217 0.998269 -1.93379
upperback 2.43711 0.527958 -4.01869
thorax -6.42088 0.186735 -3.29315
lowerneck 5.23959 -5.17783 0.875408
upperneck 6.1375 -7.47826 8.53366
head 1.37237 -3.74993 2.58201
rclavicle -2.6794e-014 -7.95139e-016
rhumerus 16.8451 6.8471 -68.1555
rradius 54.435
rwrist 29.2866
rhand -39.9738 731.805
rfingers 7.12502
rthumb -12.9425 -17.7732
lclavicle -2.6794e-014 -7.95139e-016
lhumerus -173.531 213.663 -97.9089
lradius 70.2061
lwrist 6.02559
lhand -17.3955 -0.345132
lfingers 7.12502
lthumb 8.85367 29.4491
rfemur 2.52315 1.05376 13.3047
rtibia 41.8793
rfoot -26.8919 -8.16126
rtoes -14.1705
lfemur -187.49 193.088 -201.577
ltibia 49.0708
lfoot 339.133 -8.68239
ltoes 2.48707
243
root 1.26256 16.7351 0.726269 -563.302 -101.607 551.435
lowerback 16.0566 1.08427 -1.92366
upperback 2.52093 0.63488 -4.14278
thorax -6.28953 0.235479 -3.45094
lowerneck 5.14393 -5.20257 1.06238
upperneck 5.86787 -7.47255 8.45423
head 1.2902 -3.74744 2.52245
rclavicle 4.19063e-014 -3.18055e-014
rhumerus 13.6254 7.10513 -70.095
rradius 54.4119
rwrist 28.96
rhand -39.2667 730.383
rfingers 7.12502
rthumb -12.2608 -19.2374
lclavicle 4.19063e-014 -3.18055e-014
lhumerus -175.731 212.681 -96.6039
lradius 67.8971
lwrist 4.88523
lhand -16.853 1.25713
lfingers 7.12502
lthumb 9.37721 31.0285
rfemur 2.59317 1.42259 13.4829
rtibia 41.6785
rfoot -27.4548 -8.26776
rtoes -13.9756
lfemur -187.416 192.77 -201.428
ltibia 48.9162
lfoot 338.78 -9.00066
ltoes 2.74831
